<svg xmlns="http://www.w3.org/2000/svg" width="386.661" height="386.674" viewBox="0 0 386.661 386.674"><defs><style>.a{fill:#fff;}</style></defs><g transform="translate(-1593.781 -329.214)"><path class="a" d="M1951.6,330.087c-10.7-1.883-21.37-.57-31.814,2.508-23.681,6.981-44.877,19.033-65.508,32.173-3.325,2.117-5.971,2.278-9.631.858-18.459-7.15-37.694-10.361-59.106-10.572a166.529,166.529,0,0,0-93.372,29.279c-63.657,43.371-89.047,123.644-62.381,196.111,1.346,3.664.887,6.31-1.01,9.727-8.965,16.135-18.179,32.192-25.977,48.891-6.347,13.6-10.072,28.177-8.75,43.6,1.3,15.092,10.164,26.51,24.545,30.984,10.007,3.113,20.121,2.7,30.17.495,26.391-5.777,49.952-18.114,72.751-32.048,3.628-2.219,6.623-2.83,10.72-1.452,24.117,8.111,48.6,11.459,74.2,8.061,35.4-4.7,66.743-18.069,92.881-42.112,50.783-46.71,67.887-114.5,45.061-180.513-.689-2-.138-4.956.877-6.935,7.84-15.285,16.989-30,23.621-45.777a167.773,167.773,0,0,0,11-39.857C1983.241,350.994,1971.268,333.545,1951.6,330.087ZM1637.381,689.538c-15.5,1.625-21.136-4.272-16.989-19.525,3.656-13.434,9.3-26.367,14.633-39.287,2.563-6.205,6.439-11.868,10.136-18.532a174.22,174.22,0,0,0,53.75,53.282C1678.942,676.315,1659.8,687.191,1637.381,689.538Zm92.16-43.353c-4.207,2.977-7.156,2.876-11.289.437-37.358-22.041-61.232-53.86-70.28-96.459a146.223,146.223,0,0,1-2.186-15.368c-.459-4.409-.524-8.859-.758-13.292.211-57.148,36.123-109.92,90.378-130.5,52.892-20.057,101.263-10.614,144.68,25.242,13.007,10.738,22.789,24.135,31.07,38.7,1.668,2.939,2.71,5.41.17,8.974C1860.86,534.795,1800.629,595.866,1729.541,646.185Zm156.676-23.042c-36.38,35.958-80.866,47.435-132.449,37.529,65.862-48.487,121.89-105.057,170.57-169.325C1935.1,542.222,1922.955,586.837,1886.217,623.143Zm59.487-219.8c-4.7,10.536-10.127,20.746-15.777,32.2a177.881,177.881,0,0,0-54.039-55.059c13.6-6.526,25.949-13.144,38.855-18.4a108.216,108.216,0,0,1,26.1-6.757c10.169-1.373,14.256,3.055,14.164,13.5C1954.9,381.091,1950.595,392.371,1945.7,403.338Z"/></g></svg>