<svg id="레이어_1" data-name="레이어 1" xmlns="http://www.w3.org/2000/svg" viewBox="0 0 24 24"><defs><style>.cls-1{fill:#666;}</style></defs><title>아이콘_라인</title><path class="cls-1" d="M12,.31a11.69,11.69,0,1,0,5.57,22l4.17,1.34a1.47,1.47,0,0,0,.46.07,1.45,1.45,0,0,0,1.05-.44,1.48,1.48,0,0,0,.37-1.51l-1.34-4.17A11.69,11.69,0,0,0,12,.31ZM22.42,22.13a.24.24,0,0,1-.29.29l-4.7-1.51-.24.14a10.42,10.42,0,1,1,3.86-3.86l-.14.24Z"/><circle class="cls-1" cx="12" cy="12" r="1.08"/><circle class="cls-1" cx="7.68" cy="12" r="1.08"/><circle class="cls-1" cx="16.32" cy="12" r="1.08" transform="matrix(1, -0.07, 0.07, 1, -0.81, 1.19)"/></svg>