<svg xmlns="http://www.w3.org/2000/svg" width="488.448" height="125.487" viewBox="0 0 488.448 125.487"><defs><style>.a{fill:#fff;}</style></defs><g transform="translate(-1543.276 -888.653)"><path class="a" d="M1564.487,1014.14V984.326h-21.211a19.283,19.283,0,0,1,19.283-19.283h91.075a19.283,19.283,0,0,1-19.283,19.283h-1.929v29.814h-21.656V984.326h-24.623v29.814Zm-4.3-89.591a32.119,32.119,0,0,1,3.041-13.869,37.277,37.277,0,0,1,8.233-11.347,41.271,41.271,0,0,1,12.162-7.639,39.855,39.855,0,0,1,29.815,0,41.359,41.359,0,0,1,12.164,7.639,37.357,37.357,0,0,1,8.232,11.347,32.16,32.16,0,0,1,3.04,13.869,32.633,32.633,0,0,1-3.04,13.943,35.325,35.325,0,0,1-8.232,11.274,37.642,37.642,0,0,1-12.164,7.638,40.082,40.082,0,0,1-14.833,2.744,40.485,40.485,0,0,1-14.982-2.744,37.569,37.569,0,0,1-12.162-7.638,35.252,35.252,0,0,1-8.233-11.274A32.591,32.591,0,0,1,1560.185,924.549Zm55.772,0a13.886,13.886,0,0,0-1.409-6.156,18.854,18.854,0,0,0-3.634-5.117,17.626,17.626,0,0,0-5.636-3.263,19.4,19.4,0,0,0-6.675-1.187,19.62,19.62,0,0,0-6.9,1.187,17.75,17.75,0,0,0-5.563,3.263,17.38,17.38,0,0,0-3.782,5.117,13.861,13.861,0,0,0-1.409,6.156,13.7,13.7,0,0,0,1.409,6.23,15.826,15.826,0,0,0,3.782,4.894,16.357,16.357,0,0,0,5.563,3.413,19.6,19.6,0,0,0,6.9,1.186,19.373,19.373,0,0,0,6.675-1.186,16.261,16.261,0,0,0,5.636-3.413,17.044,17.044,0,0,0,3.634-4.894A13.725,13.725,0,0,0,1615.957,924.549Z"/><path class="a" d="M1689.529,978.838h50.135a19.282,19.282,0,0,1-19.282,19.283h-51.768V932.856a20.915,20.915,0,0,1,20.915-20.915h0Zm64.968,21.953h0V910.309a21.656,21.656,0,0,1,21.656-21.656h0v90.482A21.656,21.656,0,0,1,1754.5,1000.791Z"/><path class="a" d="M1884.581,1000.791V958.072h-24.474v40.049h-67.49V928.85a20.469,20.469,0,0,1,20.469-20.469h0v31.446h26.551v-5.191a20.47,20.47,0,0,1,20.47-20.47h0v24.326h24.474V910.309a21.656,21.656,0,0,1,21.656-21.656h0v90.482a21.656,21.656,0,0,1-21.656,21.656Zm-44.944-43.016h-26.551v22.4h26.551Z"/><path class="a" d="M2031.724,981.063h0A19.729,19.729,0,0,1,2012,1000.791h-90.778a19.728,19.728,0,0,1,19.728-19.728Zm-104.869-25.216h0l49.69-60.074,49.69,60.074h0a20.833,20.833,0,0,1-30-2.236l-19.689-23.87-19.87,23.984A20.679,20.679,0,0,1,1926.855,955.847Z"/></g></svg>