<svg id="레이어_1" data-name="레이어 1" xmlns="http://www.w3.org/2000/svg" viewBox="0 0 24 24"><defs><style>.cls-1{fill:#8251fc;}</style></defs><title>아이콘_필</title><path class="cls-1" d="M18.79,13.42a9.68,9.68,0,0,0-3.9-2.32A5.81,5.81,0,0,0,17.81,6a5.72,5.72,0,0,0-1.72-4.11A5.82,5.82,0,0,0,12,.25h0A5.7,5.7,0,0,0,7.88,2,5.71,5.71,0,0,0,6.2,6.09a5.87,5.87,0,0,0,2.9,5,9.75,9.75,0,0,0-6.82,9A2.13,2.13,0,0,0,3,21.61c1,1,3.29,2.14,9.05,2.14s8.09-1.15,9-2.12a2.15,2.15,0,0,0,.68-1.51A9.68,9.68,0,0,0,18.79,13.42Z"/></svg>